<svg width="0" height="0" class="hidden">
  <symbol aria-hidden="true" data-prefix="fas" data-icon="map-marker-alt" xmlns="http://www.w3.org/2000/svg" viewBox="0 0 384 512" id="address">
    <path fill="currentColor" d="M172.268 501.67C26.97 291.031 0 269.413 0 192 0 85.961 85.961 0 192 0s192 85.961 192 192c0 77.413-26.97 99.031-172.268 309.67-9.535 13.774-29.93 13.773-39.464 0zM192 272c44.183 0 80-35.817 80-80s-35.817-80-80-80-80 35.817-80 80 35.817 80 80 80z"></path>
  </symbol>
  <symbol xmlns="http://www.w3.org/2000/svg" viewBox="0 0 330 330" id="arrow">
    <path d="M315 150H51.213l49.393-49.394c5.858-5.857 5.858-15.355 0-21.213-5.857-5.857-15.355-5.857-21.213 0l-75 75c-5.858 5.857-5.858 15.355 0 21.213l75 75A14.956 14.956 0 0090 255a14.95 14.95 0 0010.606-4.394c5.858-5.857 5.858-15.355 0-21.213L51.213 180H315c8.284 0 15-6.716 15-15s-6.716-15-15-15z"></path>
  </symbol>
  <symbol aria-hidden="true" data-prefix="fas" data-icon="chevron-right" xmlns="http://www.w3.org/2000/svg" viewBox="0 0 320 512" id="chevron">
    <path fill="currentColor" d="M285.476 272.971L91.132 467.314c-9.373 9.373-24.569 9.373-33.941 0l-22.667-22.667c-9.357-9.357-9.375-24.522-.04-33.901L188.505 256 34.484 101.255c-9.335-9.379-9.317-24.544.04-33.901l22.667-22.667c9.373-9.373 24.569-9.373 33.941 0L285.475 239.03c9.373 9.372 9.373 24.568.001 33.941z"></path>
  </symbol>
  <symbol aria-hidden="true" data-prefix="far" data-icon="envelope" xmlns="http://www.w3.org/2000/svg" viewBox="0 0 512 512" id="email">
    <path fill="currentColor" d="M464 64H48C21.49 64 0 85.49 0 112v288c0 26.51 21.49 48 48 48h416c26.51 0 48-21.49 48-48V112c0-26.51-21.49-48-48-48zm0 48v40.805c-22.422 18.259-58.168 46.651-134.587 106.49-16.841 13.247-50.201 45.072-73.413 44.701-23.208.375-56.579-31.459-73.413-44.701C106.18 199.465 70.425 171.067 48 152.805V112h416zM48 400V214.398c22.914 18.251 55.409 43.862 104.938 82.646 21.857 17.205 60.134 55.186 103.062 54.955 42.717.231 80.509-37.199 103.053-54.947 49.528-38.783 82.032-64.401 104.947-82.653V400H48z"></path>
  </symbol>
  <symbol aria-hidden="true" data-prefix="far" data-icon="building" xmlns="http://www.w3.org/2000/svg" viewBox="0 0 448 512" id="facilities">
    <path fill="currentColor" d="M128 148v-40c0-6.6 5.4-12 12-12h40c6.6 0 12 5.4 12 12v40c0 6.6-5.4 12-12 12h-40c-6.6 0-12-5.4-12-12zm140 12h40c6.6 0 12-5.4 12-12v-40c0-6.6-5.4-12-12-12h-40c-6.6 0-12 5.4-12 12v40c0 6.6 5.4 12 12 12zm-128 96h40c6.6 0 12-5.4 12-12v-40c0-6.6-5.4-12-12-12h-40c-6.6 0-12 5.4-12 12v40c0 6.6 5.4 12 12 12zm128 0h40c6.6 0 12-5.4 12-12v-40c0-6.6-5.4-12-12-12h-40c-6.6 0-12 5.4-12 12v40c0 6.6 5.4 12 12 12zm-76 84v-40c0-6.6-5.4-12-12-12h-40c-6.6 0-12 5.4-12 12v40c0 6.6 5.4 12 12 12h40c6.6 0 12-5.4 12-12zm76 12h40c6.6 0 12-5.4 12-12v-40c0-6.6-5.4-12-12-12h-40c-6.6 0-12 5.4-12 12v40c0 6.6 5.4 12 12 12zm180 124v36H0v-36c0-6.6 5.4-12 12-12h19.5V24c0-13.3 10.7-24 24-24h337c13.3 0 24 10.7 24 24v440H436c6.6 0 12 5.4 12 12zM79.5 463H192v-67c0-6.6 5.4-12 12-12h40c6.6 0 12 5.4 12 12v67h112.5V49L80 48l-.5 415z"></path>
  </symbol>
  <symbol aria-hidden="true" data-prefix="fas" data-icon="graduation-cap" xmlns="http://www.w3.org/2000/svg" viewBox="0 0 640 512" id="learning">
    <path fill="currentColor" d="M622.34 153.2L343.4 67.5c-15.2-4.67-31.6-4.67-46.79 0L17.66 153.2c-23.54 7.23-23.54 38.36 0 45.59l48.63 14.94c-10.67 13.19-17.23 29.28-17.88 46.9C38.78 266.15 32 276.11 32 288c0 10.78 5.68 19.85 13.86 25.65L20.33 428.53C18.11 438.52 25.71 448 35.94 448h56.11c10.24 0 17.84-9.48 15.62-19.47L82.14 313.65C90.32 307.85 96 298.78 96 288c0-11.57-6.47-21.25-15.66-26.87.76-15.02 8.44-28.3 20.69-36.72L296.6 284.5c9.06 2.78 26.44 6.25 46.79 0l278.95-85.7c23.55-7.24 23.55-38.36 0-45.6zM352.79 315.09c-28.53 8.76-52.84 3.92-65.59 0l-145.02-44.55L128 384c0 35.35 85.96 64 192 64s192-28.65 192-64l-14.18-113.47-145.03 44.56z"></path>
  </symbol>
  <symbol aria-hidden="true" data-prefix="fas" data-icon="landmark" xmlns="http://www.w3.org/2000/svg" viewBox="0 0 512 512" id="library">
    <path fill="currentColor" d="M501.62 92.11L267.24 2.04a31.958 31.958 0 00-22.47 0L10.38 92.11A16.001 16.001 0 000 107.09V144c0 8.84 7.16 16 16 16h480c8.84 0 16-7.16 16-16v-36.91c0-6.67-4.14-12.64-10.38-14.98zM64 192v160H48c-8.84 0-16 7.16-16 16v48h448v-48c0-8.84-7.16-16-16-16h-16V192h-64v160h-96V192h-64v160h-96V192H64zm432 256H16c-8.84 0-16 7.16-16 16v32c0 8.84 7.16 16 16 16h480c8.84 0 16-7.16 16-16v-32c0-8.84-7.16-16-16-16z"></path>
  </symbol>
  <symbol xmlns="http://www.w3.org/2000/svg" viewBox="0 0 24 24" id="mission">
    <path d="M18.5 24H.5a.5.5 0 01-.439-.74l9-16.5c.175-.321.703-.321.878 0l9 16.5a.502.502 0 01-.439.74zM1.342 23h16.315L9.5 8.044z"></path>
    <path d="M23.5 24h-5a.5.5 0 010-1h4.154l-4.625-8.41-1.906 3.944a.5.5 0 11-.9-.436l2.328-4.816a.501.501 0 01.437-.282.526.526 0 01.451.259l5.5 10A.5.5 0 0123.5 24zM9.5 7.5A.5.5 0 019 7V.5a.5.5 0 01.5-.5h6a.5.5 0 01.354.854L14.207 2.5l1.646 1.646A.499.499 0 0115.5 5H10v2a.5.5 0 01-.5.5zM10 4h4.293l-1.146-1.146a.5.5 0 010-.707L14.293 1H10zm1 11l-.036-.001a.497.497 0 01-.364-.199l-1.1-1.466L8.4 14.8a.503.503 0 01-.753.054l-1.68-1.68a.5.5 0 01.707-.707l1.272 1.272L9.1 12.2c.188-.252.611-.252.8 0l1.154 1.539 1.272-1.272a.5.5 0 01.707.707l-1.68 1.68A.499.499 0 0111 15z"></path>
  </symbol>
  <symbol xmlns="http://www.w3.org/2000/svg" viewBox="0 0 438.891 438.891" id="objective">
    <path d="M347.968 57.503h-39.706V39.74c0-5.747-6.269-8.359-12.016-8.359h-30.824C258.108 10.483 239.822.034 218.924.034c-20.668-.777-39.467 11.896-46.498 31.347h-30.302c-5.747 0-11.494 2.612-11.494 8.359v17.763H90.923c-23.53.251-42.78 18.813-43.886 42.318v299.363c0 22.988 20.898 39.706 43.886 39.706h257.045c22.988 0 43.886-16.718 43.886-39.706V99.822c-1.106-23.506-20.356-42.068-43.886-42.319zm-196.441-5.224h28.735a11.496 11.496 0 009.927-9.404c3.094-13.474 14.915-23.146 28.735-23.51 13.692.415 25.335 10.117 28.212 23.51a11.494 11.494 0 0010.449 9.404h29.78v41.796H151.527V52.279zm219.429 346.906c0 11.494-11.494 18.808-22.988 18.808H90.923c-11.494 0-22.988-7.314-22.988-18.808V99.822c1.066-11.964 10.978-21.201 22.988-21.42h39.706v26.645c.552 5.854 5.622 10.233 11.494 9.927h154.122a11.493 11.493 0 0012.016-9.927V78.401h39.706c12.009.22 21.922 9.456 22.988 21.42v299.364z"></path>
    <path d="M179.217 233.569c-3.919-4.131-10.425-4.364-14.629-.522l-33.437 31.869-14.106-14.629c-3.919-4.131-10.425-4.363-14.629-.522a10.971 10.971 0 000 15.151l21.42 21.943a9.403 9.403 0 007.314 3.135 10.446 10.446 0 007.314-3.135l40.751-38.661c4.04-3.706 4.31-9.986.603-14.025a8.78 8.78 0 00-.601-.604zm149.943 22.465H208.997c-5.771 0-10.449 4.678-10.449 10.449s4.678 10.449 10.449 10.449H329.16c5.771 0 10.449-4.678 10.449-10.449s-4.678-10.449-10.449-10.449zM179.217 149.977c-3.919-4.131-10.425-4.364-14.629-.522l-33.437 31.869-14.106-14.629c-3.919-4.131-10.425-4.364-14.629-.522a10.971 10.971 0 000 15.151l21.42 21.943a9.403 9.403 0 007.314 3.135 10.446 10.446 0 007.314-3.135l40.751-38.661c4.04-3.706 4.31-9.986.603-14.025a8.78 8.78 0 00-.601-.604zm149.943 22.465H208.997c-5.771 0-10.449 4.678-10.449 10.449s4.678 10.449 10.449 10.449H329.16c5.771 0 10.449-4.678 10.449-10.449s-4.678-10.449-10.449-10.449zM179.217 317.16c-3.919-4.131-10.425-4.363-14.629-.522l-33.437 31.869-14.106-14.629c-3.919-4.131-10.425-4.363-14.629-.522a10.971 10.971 0 000 15.151l21.42 21.943a9.403 9.403 0 007.314 3.135 10.446 10.446 0 007.314-3.135l40.751-38.661c4.04-3.706 4.31-9.986.603-14.025a9.253 9.253 0 00-.601-.604zm149.943 22.466H208.997c-5.771 0-10.449 4.678-10.449 10.449s4.678 10.449 10.449 10.449H329.16c5.771 0 10.449-4.678 10.449-10.449s-4.678-10.449-10.449-10.449z"></path>
  </symbol>
  <symbol aria-hidden="true" data-prefix="fas" data-icon="phone" xmlns="http://www.w3.org/2000/svg" viewBox="0 0 512 512" id="phone">
    <path fill="currentColor" d="M493.4 24.6l-104-24c-11.3-2.6-22.9 3.3-27.5 13.9l-48 112c-4.2 9.8-1.4 21.3 6.9 28l60.6 49.6c-36 76.7-98.9 140.5-177.2 177.2l-49.6-60.6c-6.8-8.3-18.2-11.1-28-6.9l-112 48C3.9 366.5-2 378.1.6 389.4l24 104C27.1 504.2 36.7 512 48 512c256.1 0 464-207.5 464-464 0-11.2-7.7-20.9-18.6-23.4z"></path>
  </symbol>
  <symbol aria-hidden="true" data-prefix="fas" data-icon="plus" xmlns="http://www.w3.org/2000/svg" viewBox="0 0 448 512" id="plus">
    <path fill="currentColor" d="M416 208H272V64c0-17.67-14.33-32-32-32h-32c-17.67 0-32 14.33-32 32v144H32c-17.67 0-32 14.33-32 32v32c0 17.67 14.33 32 32 32h144v144c0 17.67 14.33 32 32 32h32c17.67 0 32-14.33 32-32V304h144c17.67 0 32-14.33 32-32v-32c0-17.67-14.33-32-32-32z"></path>
  </symbol>
  <symbol aria-hidden="true" data-prefix="fas" data-icon="hand-holding-usd" xmlns="http://www.w3.org/2000/svg" viewBox="0 0 576 512" id="prices">
    <path fill="currentColor" d="M271.06 144.3l54.27 14.3a8.59 8.59 0 016.63 8.1c0 4.6-4.09 8.4-9.12 8.4h-35.6a30 30 0 01-11.19-2.2c-5.24-2.2-11.28-1.7-15.3 2l-19 17.5a11.68 11.68 0 00-2.25 2.66 11.42 11.42 0 003.88 15.74 83.77 83.77 0 0034.51 11.5V240c0 8.8 7.83 16 17.37 16h17.37c9.55 0 17.38-7.2 17.38-16v-17.6c32.93-3.6 57.84-31 53.5-63-3.15-23-22.46-41.3-46.56-47.7l-54.27-14.3a8.59 8.59 0 01-6.63-8.1c0-4.6 4.09-8.4 9.12-8.4h35.6A30 30 0 01332 83.1c5.23 2.2 11.28 1.7 15.3-2l19-17.5a11.31 11.31 0 002.17-2.6 11.43 11.43 0 00-3.84-15.78 83.82 83.82 0 00-34.52-11.5V16c0-8.8-7.82-16-17.37-16h-17.37C285.82 0 278 7.2 278 16v17.6c-32.89 3.6-57.85 31-53.51 63 3.14 23 22.51 41.3 46.57 47.7zm294.21 183.8c-11.8-10.7-30.2-10-42.6 0l-92.4 73.9a63.64 63.64 0 01-40 14H272a16 16 0 010-32h78.29c15.9 0 30.71-10.9 33.25-26.6a31.2 31.2 0 00.46-5.46A32 32 0 00352 320H192a117.66 117.66 0 00-74.1 26.29L71.4 384H16a16 16 0 00-16 16v96a16 16 0 0016 16h356.77a64 64 0 0040-14L564 377a32 32 0 001.28-48.9z"></path>
  </symbol>
  <symbol aria-hidden="true" data-prefix="fas" data-icon="chalkboard-teacher" xmlns="http://www.w3.org/2000/svg" viewBox="0 0 640 512" id="professors">
    <path fill="currentColor" d="M208 352c-2.39 0-4.78.35-7.06 1.09C187.98 357.3 174.35 360 160 360c-14.35 0-27.98-2.7-40.95-6.91-2.28-.74-4.66-1.09-7.05-1.09C49.94 352-.33 402.48 0 464.62.14 490.88 21.73 512 48 512h224c26.27 0 47.86-21.12 48-47.38.33-62.14-49.94-112.62-112-112.62zm-48-32c53.02 0 96-42.98 96-96s-42.98-96-96-96-96 42.98-96 96 42.98 96 96 96zM592 0H208c-26.47 0-48 22.25-48 49.59V96c23.42 0 45.1 6.78 64 17.8V64h352v288h-64v-64H384v64h-76.24c19.1 16.69 33.12 38.73 39.69 64H592c26.47 0 48-22.25 48-49.59V49.59C640 22.25 618.47 0 592 0z"></path>
  </symbol>
  <symbol aria-hidden="true" data-prefix="fas" data-icon="book-open" xmlns="http://www.w3.org/2000/svg" viewBox="0 0 576 512" id="programs">
    <path fill="currentColor" d="M542.22 32.05c-54.8 3.11-163.72 14.43-230.96 55.59-4.64 2.84-7.27 7.89-7.27 13.17v363.87c0 11.55 12.63 18.85 23.28 13.49 69.18-34.82 169.23-44.32 218.7-46.92 16.89-.89 30.02-14.43 30.02-30.66V62.75c.01-17.71-15.35-31.74-33.77-30.7zM264.73 87.64C197.5 46.48 88.58 35.17 33.78 32.05 15.36 31.01 0 45.04 0 62.75V400.6c0 16.24 13.13 29.78 30.02 30.66 49.49 2.6 149.59 12.11 218.77 46.95 10.62 5.35 23.21-1.94 23.21-13.46V100.63c0-5.29-2.62-10.14-7.27-12.99z"></path>
  </symbol>
  <symbol aria-hidden="true" data-prefix="fas" data-icon="bars" xmlns="http://www.w3.org/2000/svg" viewBox="0 0 448 512" id="toggler">
    <path fill="currentColor" d="M16 132h416c8.837 0 16-7.163 16-16V76c0-8.837-7.163-16-16-16H16C7.163 60 0 67.163 0 76v40c0 8.837 7.163 16 16 16zm0 160h416c8.837 0 16-7.163 16-16v-40c0-8.837-7.163-16-16-16H16c-8.837 0-16 7.163-16 16v40c0 8.837 7.163 16 16 16zm0 160h416c8.837 0 16-7.163 16-16v-40c0-8.837-7.163-16-16-16H16c-8.837 0-16 7.163-16 16v40c0 8.837 7.163 16 16 16z"></path>
  </symbol>
  <symbol xmlns="http://www.w3.org/2000/svg" viewBox="0 0 24 24" id="vision">
    <path d="M23.648 14.564L19.779 4.275l-.002-.006-.001-.001C19.266 2.911 17.949 2 16.5 2s-2.766.911-3.277 2.269A3.492 3.492 0 0013 5.5V10h-2V5.5C11 3.57 9.43 2 7.5 2a3.518 3.518 0 00-3.277 2.269l-.002.006L.352 14.561l-.001.001A5.506 5.506 0 005.5 22c3.032 0 5.5-2.467 5.5-5.5V16h2v.5c0 3.033 2.468 5.5 5.5 5.5s5.5-2.467 5.5-5.5c0-.666-.118-1.317-.352-1.936zM5.5 20a3.504 3.504 0 01-3.277-4.732A3.518 3.518 0 015.5 13C7.43 13 9 14.57 9 16.5S7.43 20 5.5 20zm13 0c-1.93 0-3.5-1.57-3.5-3.5s1.57-3.5 3.5-3.5c1.45 0 2.767.912 3.277 2.268A3.504 3.504 0 0118.5 20z"></path>
  </symbol>
</svg>